<svg xmlns="http://www.w3.org/2000/svg" viewBox="0 0 400 25"><g fill="#6E6F72"><path d="M164 10.2c-1.5 0-2.3-.1-3.1-.4 3.8-2.8 3.4-2.7 8.6-2.7h5.3c1 0 2.1.1 3.1.5.8.2 1.8.7 2.8 1.3l-.1.1c-.3.3-.5.7-.5 1.1v.1H164z"/><path d="M160 17.4c-1.9 0-3.9-1.3-4-1.3l-.2-.1v-2.9l.1-.1c.1-.2.3-.7.3-1.1l.1-2 3.8-2.6-.1-.8.4-.1c1.6-.3 4.3-.6 6.7-.6h8.3c1.1.1 2.1.3 2.8.5 1.6.5 5.2 2.7 5.8 3 .6.1 3.6.4 6.1 1.1 2.9.7 3.9 1.9 4 2.4l.3 4.2-.4.1c-.7.2-1.3.3-2.8.3h-1.5v-.9h1.5c1.2 0 1.7-.1 2.2-.2v-.2l-.2-3.2c-.1-.1-.9-1.1-3.4-1.7-2.7-.7-6-1.1-6-1.1l-.2-.1s-4.1-2.5-5.7-3c-.7-.2-1.6-.4-2.6-.5H167c-2.1 0-4.6.2-6.1.5l.1.6-3.9 2.6-.1 1.5c0 .6-.3 1.1-.4 1.4v2.2c.5.3 2 1.1 3.4 1.1h2.6v.9h-2.5c0 .1-.1.1-.1.1zm25.1 0h-17.8v-.9h17.8v.9z"/><path d="M156.4 12.6h.5c.7 0 1.6-.5 1.6-1.1v-.6h-2.2c.1.6.1 1.1.1 1.7zm34.5-.1l.8 1.5c.3-.2.7-.3 1-.3h1.3v-.1c0-.1-.4-.8-.9-1.1h-2.2zM174.7 11.3h2v.6h-2v-.6zm-8.2 0h2v.6h-2v-.6zM169.6 14.9v.7h13.3l-13.3-.7zM193 15.2h1v.6h-1v-.6z"/><path d="M192.8 15h-.4c-.2 0-.3.1-.3.3v.3c0 .2.1.3.3.3h.4c.2 0 .3-.1.3-.3v-.3c0-.2-.1-.3-.3-.3zm-11.9-5.8c-.2.2-.4.5-.4.8 0 .1 0 .2.1.3s.2.1.3.1h.9c.2 0 .3-.1.4-.2.1-.1.1-.3 0-.4-.2-.3-.5-.6-.9-.7-.2 0-.3 0-.4.1z"/><path d="M181.6 10.9c-.1 0-.2 0-.2-.1l-.5-.7c-.1-.1-.1-.3.1-.4.1-.1.3-.1.4.1l.5.7c.1.1.1.3-.1.4h-.2zM156.5 15.9v1.2h3.1V17c-1.3-.1-2.6-.8-3.1-1.1zM165 12.3c1 0 1.9.4 2.6 1.1.7.7 1.1 1.6 1.1 2.6v1.4h-1.3c.2-.4.4-.8.4-1.3 0-1.4-1.2-2.6-2.6-2.6-1.4 0-2.6 1.2-2.6 2.6 0 .5.1.9.4 1.3h-1.3v-1.5c0-1 .4-1.9 1.1-2.6.3-.6 1.2-1 2.2-1z"/><path d="M162.8 13.9c.6-.6 1.3-.9 2.2-.9.8 0 1.6.3 2.2.9.6.6.9 1.3.9 2.2 0 .8-.3 1.6-.9 2.2-.6.6-1.3.9-2.2.9-.8 0-1.6-.3-2.2-.9-.6-.6-.9-1.3-.9-2.2 0-.8.4-1.6.9-2.2zm2.2.1c-1.2 0-2.1 1-2.1 2.1s1 2.1 2.1 2.1c1.2 0 2.1-1 2.1-2.1s-.9-2.1-2.1-2.1z"/><circle cx="165" cy="16.1" r=".8"/><g><path d="M187.4 12.3c1 0 1.9.4 2.6 1.1.7.7 1.1 1.6 1.1 2.6v1.4h-1.3c.2-.4.4-.8.4-1.3 0-1.4-1.2-2.6-2.6-2.6-1.4 0-2.6 1.2-2.6 2.6 0 .5.1.9.4 1.3h-1.3v-1.5c0-1 .4-1.9 1.1-2.6.3-.6 1.2-1 2.2-1z"/><path d="M185.3 13.9c.6-.6 1.3-.9 2.2-.9.8 0 1.6.3 2.2.9.6.6.9 1.3.9 2.2 0 .8-.3 1.6-.9 2.2-.6.6-1.3.9-2.2.9-.8 0-1.6-.3-2.2-.9-.6-.6-.9-1.3-.9-2.2 0-.8.3-1.6.9-2.2zm2.1.1c-1.2 0-2.1 1-2.1 2.1s1 2.1 2.1 2.1c1.2 0 2.1-1 2.1-2.1s-.9-2.1-2.1-2.1z"/><circle cx="187.4" cy="16.1" r=".8"/></g></g><g fill="#6E6F72"><path d="M31.2 17.7H18.7v-.9h12.5v.9zm4.1 0v-.9c.7 0 1.1-.1 1.5-.1l-.2-2.8c-.2-1-3.6-2.5-4.8-2.5h-.1l-.4-.3c-2.5-1.5-4.4-2.7-7.3-3h-2.3c-1.8 0-3.2.1-4.3.4l.2.3-.5.3c-1.2.7-3.3 2.6-3.1 3.6 0 .6-.4 1-.7 1.3v2c.1.2.5.7 1.3.8l-.1.8c-1.4-.2-2-1.3-2-1.4v-2.8l.2-.1c.2-.1.5-.4.5-.6-.2-1.5 2-3.3 3.2-4.1l-.3-.5.4-.1c1.3-.4 2.9-.6 5.1-.6h2.3c3.1.3 5.2 1.6 7.7 3.1l.2.1c1.5.1 5.2 1.6 5.6 3.2l.2 3.6-.4.1c-.4.1-.9.2-1.9.2z"/><path d="M16.6 13.5c.8 0 1.6.3 2.1.9.6.6.9 1.3.9 2.1v1.2H19c-.1.3-.3.6-.5.8-.5.5-1.1.8-1.8.8s-1.4-.3-1.8-.8c-.3-.3-.5-.6-.6-.9-.1 0-.2-.1-.4-.1l-.3-.1v-.9c0-.8.3-1.6.9-2.1.5-.6 1.3-.9 2.1-.9zm16.6 1.4c-1 0-1.8.8-1.8 1.8s.8 1.8 1.8 1.8 1.8-.8 1.8-1.8-.8-1.8-1.8-1.8zm-16.6 0c-1 0-1.8.8-1.8 1.8s.8 1.8 1.8 1.8 1.8-.8 1.8-1.8-.8-1.8-1.8-1.8zm16.6-1.4c.8 0 1.6.3 2.1.9.6.6.9 1.3.9 2.1v1.1h-.7c-.1.3-.3.6-.6.8-.5.5-1.1.8-1.8.8s-1.4-.3-1.8-.8c-.2-.2-.4-.5-.5-.8h-.6v-1.2c0-.8.3-1.6.9-2.1.5-.5 1.3-.8 2.1-.8zM16.9 9.1c-.8.4-2.1 1.1-2.7 1.8h1.4l1.9-2-.6.2zm.6 1.9c1.3-1.5 2.2-2.3 3.3-2.3h3.1c1.9.2 3.4.8 4.9 1.6l-.1.1c-.3.3-.4.6-.5 1v.2L17.5 11zm-4.1.9V13h1.2s.8-.8.7-1.4c0 0-.9 0-1.9.3z"/><circle cx="16.6" cy="16.7" r=".6"/><circle cx="33.2" cy="16.7" r=".6"/><path d="M23 12.2h1.2v.6H23v-.6zM28.9 10.6c-.2.2-.4.5-.4.8 0 .1 0 .2.1.3.1.1.2.1.3.1h.9c.2 0 .3-.1.4-.2.1-.1.1-.3 0-.4-.2-.3-.5-.6-.9-.7-.1 0-.3 0-.4.1z"/><path d="M29.7 12.3c-.1 0-.2 0-.2-.1l-.5-.7c-.1-.1-.1-.3.1-.4.1-.1.3-.1.4.1l.5.7c.1.1.1.3-.1.4h-.2zm-12.4-.6h1.2v.6h-1.2v-.6zM34 11.7c1.1 1.9 1.4 2.4 2.8 2.4h.2v-.2c-.2-.8-1.4-1.6-2.7-2.2H34z"/></g><g fill="#6E6F72"><path d="M58.6 11v1.1h.5c.7 0 1.6-.5 1.6-1.1v-.6h-2.2l.1.6zm-.3 4.7v1.2h3.1v-.1c-1.2-.1-2.5-.8-3.1-1.1zm7-6.5c3.3-1.4 3.9-1.8 7.6-1.8 2.6 0 4.4.9 6.3 2-.3.3-.5.7-.5 1.1L66.4 10c0 .1-.8 0-1.1-.8zm14.1.5c-.2.3-.3.6-.3.9 0 .1 0 .2.1.3s.2.1.3.1h.9c.2 0 .3-.1.4-.2.1-.1.1-.3 0-.4-.2-.3-.5-.6-.9-.7-.2-.1-.3-.1-.5 0z"/><path d="M80.2 11.5c-.1 0-.2 0-.2-.1l-.5-.7c-.1-.1-.1-.3.1-.4.1-.1.3-.1.4.1l.5.7c.1.1.1.3-.1.4-.1-.1-.1 0-.2 0z"/><path d="M61.6 17.1c-1.9 0-3.9-1.3-4-1.3l-.2-.1V13l.1-.1c.2-.2.6-.7.6-1l.1-2.7 2.9-.3c4.9-2.3 6.7-2.8 11.7-2.8 3.3 0 5.3 1.2 7.7 2.5.5.3 1.1.6 1.7 1 .6 0 3.9.1 6.4.8 2.4.6 3.9 1.4 4 2.2l.3 4.2-.4.1c-.7.2-1.3.3-2.8.3h-.3v-.9h.3c1.2 0 1.7-.1 2.2-.2v-.2l-.2-3.2c-.1-.1-.9-.8-3.4-1.4-2.7-.7-6.2-.8-6.3-.8l-.2-.1c-.7-.4-1.3-.7-1.8-1C77.6 8 75.8 7 72.7 7c-4.8 0-6.6.5-11.4 2.7h-.1L59 10l-.1 1.9c0 .6-.5 1.2-.7 1.4v1.8c.5.3 2.1 1.1 3.4 1.1h.7v.9h-.7zm22 0H67.4v-.9h16.2v.9z"/><path d="M86.5 12c1 0 1.9.4 2.6 1.1.7.7 1.1 1.6 1.1 2.6v1.5h-1.3c.2-.4.4-.8.4-1.3 0-1.4-1.2-2.6-2.6-2.6s-2.6 1.2-2.6 2.6c0 .5.1.9.4 1.3h-1.3v-1.5c0-1 .4-1.9 1.1-2.6.3-.7 1.2-1.1 2.2-1.1z"/><path d="M84.3 13.6c.6-.6 1.3-.9 2.2-.9.8 0 1.6.3 2.2.9.6.6.9 1.3.9 2.2 0 .8-.3 1.6-.9 2.2s-1.3.9-2.2.9c-.8 0-1.6-.3-2.2-.9s-.9-1.3-.9-2.2c0-.8.4-1.6.9-2.2zm2.2.1c-1.2 0-2.1 1-2.1 2.1s1 2.1 2.1 2.1c1.2 0 2.1-1 2.1-2.1s-.9-2.1-2.1-2.1z"/><circle cx="86.5" cy="15.8" r=".8"/><path d="M69.8 14.6v.7h12l-12-.7zM89.3 12l.8 1.5c.3-.2.7-.3 1-.3h1.3v-.1c0-.1-.4-.8-.9-1.1h-2.2zM91.4 14.7h1v.6h-1v-.6z"/><path d="M91.2 14.5h-.4c-.2 0-.3.1-.3.3v.3c0 .2.1.3.3.3h.4c.2 0 .3-.1.3-.3v-.3c0-.2-.1-.3-.3-.3zM70.3 11.1h2v.6h-2v-.6z"/><g><path d="M64.9 12c1 0 1.9.4 2.6 1.1.7.7 1.1 1.6 1.1 2.6v1.5h-1.5c.2-.4.4-.8.4-1.3 0-1.4-1.2-2.6-2.6-2.6-1.4 0-2.6 1.2-2.6 2.6 0 .5.1.9.4 1.3h-1.3v-1.5c0-1 .4-1.9 1.1-2.6.5-.7 1.4-1.1 2.4-1.1z"/><path d="M62.7 13.6c.6-.6 1.3-.9 2.2-.9.8 0 1.6.3 2.2.9.6.6.9 1.3.9 2.2 0 .8-.3 1.6-.9 2.2s-1.3.9-2.2.9c-.8 0-1.6-.3-2.2-.9-.6-.6-.9-1.3-.9-2.2 0-.8.3-1.6.9-2.2zm2.2.1c-1.2 0-2.1 1-2.1 2.1s1 2.1 2.1 2.1c1.2 0 2.1-1 2.1-2.1s-.9-2.1-2.1-2.1z"/><circle cx="64.9" cy="15.8" r=".8"/></g></g><g fill="#6E6F72"><path d="M116.9 10.2c-1.5 0-2.3-.1-3.1-.4 1.4-1 3.7-2.7 5.6-2.7h4.7c2.2 0 4.1.8 6 1.8-.3.3-.5.7-.5 1.1v.1l-12.7.1z"/><path d="M110.4 17.4c-1.9 0-3.9-1.3-4-1.3l-.2-.1v-2.9l.1-.1c.1-.2.4-.7.4-1.1l.1-3 4.1-.3.1-.1c2-1 5.8-2.7 7.9-2.7h6.1c1.1.1 2.1.3 2.8.5 1.6.5 5.2 2.7 5.8 3 .6.1 3.6.4 6.1 1.1 2.9.7 3.9 1.9 4 2.4l.3 4.2-.4.1c-.7.2-1.3.3-2.8.3h-1.5v-.9h1.5c1.2 0 1.7-.1 2.2-.2l-.2-3.4c-.1-.1-.9-1.1-3.4-1.7-2.7-.7-6-1.1-6-1.1l-.2-.1s-4.1-2.5-5.7-3c-.7-.2-1.6-.4-2.6-.5h-6c-1.9 0-5.6 1.7-7.5 2.6l-.4.1-3.4.2-.1 2.2c0 .6-.3 1.2-.4 1.4v2.2c.5.3 2.1 1.1 3.4 1.1h1.2v.9h-1.2c0 .2-.1.2-.1.2zm24.3 0h-18.4v-.9h18.4v.9z"/><path d="M107.1 11.5v1.1h.5c.7 0 1.6-.5 1.6-1.1v-.6h-2.1v.6zm33.4 1l.8 1.5c.3-.2.7-.3 1-.3h1.3v-.1c0-.1-.4-.8-.9-1.1h-2.2zM124.2 11.3h2v.6h-2v-.6zm-8.7 0h2v.6h-2v-.6zM119.2 14.9v.7h13.3l-13.3-.7zM142.6 15.2h1v.6h-1v-.6z"/><path d="M142.4 15h-.4c-.2 0-.3.1-.3.3v.3c0 .2.1.3.3.3h.4c.2 0 .3-.1.3-.3v-.3c0-.2-.1-.3-.3-.3zm-12-5.8c-.2.2-.4.5-.4.8 0 .1 0 .2.1.3s.2.1.3.1h.9c.2 0 .3-.1.4-.2.1-.1.1-.3 0-.4-.2-.3-.5-.6-.9-.7-.1 0-.2 0-.4.1z"/><path d="M131.2 10.9c-.1 0-.2 0-.2-.1l-.5-.7c-.1-.1-.1-.3.1-.4.1-.1.3-.1.4.1l.5.7c.1.1.1.3-.1.4h-.2zM106.9 15.9v1.2h3.1V17c-1.3-.1-2.6-.8-3.1-1.1zM114 12.3c1 0 1.9.4 2.6 1.1.7.7 1.1 1.6 1.1 2.6v1.4h-1.3c.2-.4.4-.8.4-1.3 0-1.4-1.2-2.6-2.6-2.6s-2.6 1.2-2.6 2.6c0 .5.1.9.4 1.3h-1.3v-1.5c0-1 .4-1.9 1.1-2.6.3-.6 1.2-1 2.2-1z"/><path d="M111.9 13.9c.6-.6 1.3-.9 2.2-.9.8 0 1.6.3 2.2.9.6.6.9 1.3.9 2.2 0 .8-.3 1.6-.9 2.2s-1.3.9-2.2.9c-.8 0-1.6-.3-2.2-.9s-.9-1.3-.9-2.2c0-.8.3-1.6.9-2.2zm2.1.1c-1.2 0-2.1 1-2.1 2.1 0 1.2 1 2.1 2.1 2.1s2.1-1 2.1-2.1c.1-1.2-.9-2.1-2.1-2.1z"/><circle cx="114" cy="16.1" r=".8"/><g><path d="M137 12.3c1 0 1.9.4 2.6 1.1.7.7 1.1 1.6 1.1 2.6v1.4h-1.3c.2-.4.4-.8.4-1.3 0-1.4-1.2-2.6-2.6-2.6-1.4 0-2.6 1.2-2.6 2.6 0 .5.1.9.4 1.3h-1.3v-1.5c0-1 .4-1.9 1.1-2.6.3-.6 1.2-1 2.2-1z"/><path d="M134.9 13.9c.6-.6 1.3-.9 2.2-.9.8 0 1.6.3 2.2.9.6.6.9 1.3.9 2.2 0 .8-.3 1.6-.9 2.2-.6.6-1.3.9-2.2.9-.8 0-1.6-.3-2.2-.9-.6-.6-.9-1.3-.9-2.2 0-.8.3-1.6.9-2.2zm2.1.1c-1.2 0-2.1 1-2.1 2.1 0 1.2 1 2.1 2.1 2.1 1.2 0 2.1-1 2.1-2.1.1-1.2-.9-2.1-2.1-2.1z"/><circle cx="137" cy="16.1" r=".8"/></g></g><g fill="#6E6F72"><path d="M220.8 7.5c-.4 0-.5.4-.6.7l-.3.8c-.3 1.1 1.7 1.1 1.7.2l-.1-1c0-.4-.4-.7-.7-.7z"/><path d="M211.3 17.3c-1.9 0-3.9-1.3-4-1.3l-.2-.1V13l.1-.1c.1-.2.4-.7.4-1.1l.1-2.7 5.2-.3c2.3-.1 3.7.1 5.2.4.9.1 1.8.3 2.8.4h8.5c.5 0 1-.1 1.5-.1.5-.1 1.1-.1 1.6-.1.1 0 3.5.4 6.2 1.1 2.9.7 3.9 1.9 4 2.4l.4 4.1-.4.1c-.7.2-1.3.3-2.8.3h-1.6v-.9h1.6c1.2 0 1.7-.1 2.2-.2v-.2l-.2-3.2c-.1-.1-.9-1.1-3.4-1.7-2.7-.7-6-1.1-6-1.1-.4 0-.9.1-1.5.1-.5.1-1.1.1-1.6.1h-8.5c-1.2-.1-2.1-.2-2.9-.4-1.5-.2-2.9-.5-5.1-.4l-4.5.2-.1 1.9c0 .6-.3 1.2-.4 1.4v2.2c.5.3 2.1 1.1 3.4 1.1h1.3v.9h-1.3c.1.1 0 .1 0 .1zm22.6 0h-16.8v-.9h16.8v.9z"/><path d="M208 11.4v1.1h.5c.7 0 1.6-.5 1.6-1.1v-.6h-2.2l.1.6zm31.6 1l.8 1.5c.3-.2.7-.3 1-.3h1.3v-.1c0-.1-.4-.8-.9-1.1h-2.2zm-21.9 4.9c-.2.3-.4.6-.6.8-.6.6-1.3.9-2.2.9-.8 0-1.6-.3-2.2-.9-.2-.2-.4-.5-.6-.8h-.8v-1.5c0-1 .4-1.9 1.1-2.6.7-.7 1.6-1.1 2.6-1.1s1.9.4 2.6 1.1c.7.7 1.1 1.6 1.1 2.6v1.5h-1zm18.4-3.4c-1.2 0-2.1 1-2.1 2.1s1 2.1 2.1 2.1c1.2 0 2.1-1 2.1-2.1s-.9-2.1-2.1-2.1zm-21.2 0c-1.2 0-2.1 1-2.1 2.1s1 2.1 2.1 2.1c1.2 0 2.1-1 2.1-2.1s-.9-2.1-2.1-2.1zm21.2-1.7c1 0 1.9.4 2.6 1.1.7.7 1.1 1.6 1.1 2.6v1.5h-.8c-.2.3-.4.6-.6.8-.6.6-1.3.9-2.2.9-.8 0-1.6-.3-2.2-.9-.2-.2-.4-.5-.6-.8h-.8v-1.5c0-1 .4-1.9 1.1-2.6.5-.7 1.5-1.1 2.4-1.1z"/><circle cx="236.1" cy="16" r=".8"/><path d="M220.4 11.2h2v.6h-2v-.6z"/><circle cx="214.9" cy="16" r=".8"/><path d="M219.7 14.8v.7h11.9l-11.9-.7zM241.7 15.1h1v.6h-1v-.6z"/><path d="M241.5 14.9h-.4c-.2 0-.3.1-.3.3v.3c0 .2.1.3.3.3h.4c.2 0 .3-.1.3-.3v-.3c0-.2-.1-.3-.3-.3zm-33.7.9V17h3.1v-.1c-1.3-.1-2.6-.8-3.1-1.1zm7.4-8.5c-.4 0-.5.4-.6.7l-.2.8V9c.6 0 1.1.1 1.7.1V9l-.1-1c-.1-.4-.5-.7-.8-.7zm17.6 2s-4.2-2.5-5.9-3.1c-.2-.1-.4-.1-.6-.2-.2 0-.5 0-.7-.1l-.1.8c2.2.6 3 1.9 4.9 3 .3.2 1.7.1 2 .2l.4-.6zm-4.1.2c-.2.2-.4.5-.4.8 0 .1 0 .2.1.3s.2.1.3.1h.9c.2 0 .3-.1.4-.2.1-.1.1-.3 0-.4-.2-.3-.5-.6-.9-.7-.1 0-.3 0-.4.1z"/><path d="M229.5 11.2c-.1 0-.2 0-.2-.1l-.5-.7c-.1-.1-.1-.3.1-.4.1-.1.3-.1.4.1l.5.7c.1.1.1.3-.1.4h-.2z"/></g><g fill="#6E6F72"><path d="M276.3 6.7c.8 0 1.7.2 2.5.4 2 .6 4.9 2.6 6.6 3.6l-1.3.5c-.1 0-.2.1-.3.1l-2.8-.1c-.1-.2-.3-.5-.4-.6-.3-.4-.6-.8-1.1-.9-.3-.1-.6 0-.8.2-.3.3-.5.7-.5 1.1v.1l-13-.4-3.8-.8 1.3-2.7c1.4-.2 2.9-.4 4.2-.4 3.4-.1 6-.1 9.4-.1z"/><path d="M260.3 18c-2 0-2.6-1.5-2.7-1.5v-2.8l.1-.1c.1-.2.4-.7.4-1.1l.1-2 1.8-3.3-.1-1 .4-.1c1.2-.3 4.3-.9 6.7-.9h2.8c2.3 0 4.9-.1 6.8 0 3.3.2 6.2 2 9 3.7.5.3.9.6 1.4.8.3.1.5.1.8.2 2.1.5 4.6 1.2 5 2.9v.1l-.1 3.8.1.9-.6.1c-.5.1-.9.2-2.3.2H288V17h1.9c1.1 0 1.5-.1 1.9-.2v-.2l.1-3.7c-.3-1.2-2.8-1.8-4.4-2.2-.3-.1-.6-.2-.9-.2h-.1c-.5-.3-1-.6-1.4-.9-2.7-1.7-5.4-3.4-8.5-3.5-1.8-.1-4.4-.1-6.7 0h-2.8c-2.1 0-4.8.5-6.1.8l.1.4-1.8 3.5-.1 1.7c0 .6-.3 1.1-.4 1.4v2.3c.1.2.7 1 2 .9h.6v.9h-1.1zm22.7 0h-16.7v-.9H283v.9z"/><path d="M285.4 14.5c-.6 0-1.2.2-1.6.6-.4.4-.6 1-.6 1.6s.2 1.2.6 1.6 1 .6 1.6.6 1.2-.2 1.6-.6.6-1 .6-1.6-.2-1.2-.6-1.6c-.4-.4-1-.6-1.6-.6zm-2.1 0c.6-.6 1.3-.9 2.2-.9.8 0 1.6.3 2.2.9.6.6.9 1.3.9 2.2 0 .8-.3 1.6-.9 2.2s-1.3.9-2.2.9c-.8 0-1.6-.3-2.2-.9s-.9-1.3-.9-2.2c0-.9.3-1.6.9-2.2z"/><circle cx="285.4" cy="16.7" r=".8"/><path d="M285.4 12.9c1 0 1.9.4 2.6 1.1.7.7 1.1 1.6 1.1 2.6V18h-1.3c.2-.4.4-.8.4-1.3 0-.7-.3-1.4-.8-1.8-.5-.5-1.1-.8-1.8-.8s-1.4.3-1.8.8c-.5.5-.8 1.1-.8 1.8 0 .5.1.9.4 1.3h-1.3v-1.5c0-1 .4-1.9 1.1-2.6.3-.6 1.2-1 2.2-1zm-21.8 0c1 0 1.9.4 2.6 1.1.7.7 1.1 1.6 1.1 2.6V18h-1.2c.2-.4.3-.8.3-1.3 0-.8-.3-1.5-.8-2s-1.2-.8-2-.8-1.5.3-2 .8-.8 1.2-.8 2c0 .5.1.9.3 1.3H260v-1.5c0-1 .4-1.9 1.1-2.6.6-.6 1.5-1 2.5-1z"/><path d="M261.4 14.5c.6-.6 1.3-.9 2.2-.9.8 0 1.6.3 2.2.9.6.6.9 1.3.9 2.2 0 .8-.3 1.6-.9 2.2s-1.3.9-2.2.9c-.8 0-1.6-.3-2.2-.9s-.9-1.3-.9-2.2c0-.9.4-1.6.9-2.2zm2.2.1c-1.2 0-2.1 1-2.1 2.1 0 1.2 1 2.1 2.1 2.1 1.2 0 2.1-1 2.1-2.1 0-1.2-.9-2.1-2.1-2.1z"/><circle cx="263.6" cy="16.7" r=".8"/><path d="M288 11.9l.8 1.8c.3-.1.7-.2 1-.2s1.4 0 2.4.1V13c0-.2-.1-.3-.3-.5l-3.9-.6zM273.4 11.7h1.2v.6h-1.2v-.6zm-7.1-.3h1.2v.6h-1.2v-.6zM279 10.1c-.2.2-.4.5-.4.8 0 .1 0 .2.1.3s.2.1.3.1h.9c.2 0 .3-.1.4-.2.1-.1.1-.3 0-.4-.2-.3-.5-.6-.9-.7-.2 0-.3 0-.4.1z"/><path d="M279.7 11.8c-.1 0-.2 0-.2-.1l-.5-.7c-.1-.1-.1-.3.1-.4.1-.1.3-.1.4.1l.5.7c.1.1.1.3-.1.4h-.2zM258.4 12.8h.4c.9 0 2-.7 2-1.4v-.7h-2.3c0 .8-.1 1.6-.1 2.1zM291 15.8h1v.6h-1v-.6z"/><path d="M290.9 15.6h-.4c-.2 0-.3.1-.3.3v.3c0 .2.1.3.3.3h.4c.2 0 .3-.1.3-.3v-.3c0-.2-.2-.3-.3-.3zm-22.9-.1v.7h13.3l-13.3-.7z"/></g><g fill="#6E6F72"><path d="M316.2 17.5v-.8h19.7v.8h-19.7zm-4.2-.1c-1.9-.2-5.1-1.2-6.2-2l-.2-.1V13l.1-.1c.2-.2.6-.7.6-1.1l.4-1.6-.4-1.5 2 .2 3.4-.1c.3-.1.8-.3 1.3-.5 2.6-1.1 5.1-2 6.1-2h7.3c2.1.6 4 1.6 6.3 3h.1c6.2.2 9.9.7 11.1 1.5l.2.1.1 1.3.5.4v.2c0 1.6-.7 2.2-1.1 2.6v.1c.1.2.2.5.2.7v.3l-.3.1c-1 .4-2.1.6-3.3.8l-.1-.8c1-.1 1.9-.3 2.7-.6v-.1c-.1-.2-.2-.4-.2-.5v-.2l.1-.1.2-.2c.4-.3.8-.7.8-1.8l-.5-.4v-1.2c-1.3-.6-4.8-1-10.5-1.2h-.3l-.1-.1c-2.2-1.3-4.1-2.3-6.2-2.9H319c-1 0-4 1.2-5.8 1.9-.6.2-1 .4-1.4.5h-.1l-3.5.1-.8-.1.1.5-.4 1.7c0 .6-.5 1.2-.7 1.5v1.5c1.1.7 4 1.5 5.6 1.7v.8z"/><path d="M320.3 7.7c.1.7.1 1.4.2 2.2-1.1-.3-2.2-.5-3.4-.8 1.4-.9 1.6-1.4 3.2-1.4zm.9 0h4.8c1.2.3 2.3.8 3.3 1.4l-.1.1c-.3.3-.4.6-.5.9h-7.4c0-.8-.1-1.6-.1-2.4zm15.3 10.6c-.4-.2-.7-.5-1-.9h-.3c-.2 0-.3-.1-.5-.1l-.3-.1v-1.4c0-1.1.3-2 .9-2.7.6-.6 1.4-.9 2.7-.9 1.2 0 2.1.4 2.7.9.7.7.9 1.6.9 2.7v1.1l-.4.1c-.1 0-.2 0-.4.1h-.1c-.2.5-.6.9-1 1.2-.5.3-1.1.5-1.7.5-.5-.1-1.1-.3-1.5-.5zm1.5-4.8c-1.2 0-2.1 1-2.1 2.1s1 2.1 2.1 2.1c1.2 0 2.1-1 2.1-2.1s-.9-2.1-2.1-2.1zm-23.9 0c-1.2 0-2.1 1-2.1 2.1s1 2.1 2.1 2.1c1.2 0 2.1-1 2.1-2.1s-.9-2.1-2.1-2.1zm-2.7-.5c.6-.6 1.4-.9 2.7-.9 1.2 0 2.1.4 2.7.9.7.7.9 1.6.9 2.7v1.8h-1.2c-.3.3-.6.6-1 .8-.4.2-.9.4-1.4.4s-1-.1-1.5-.4c-.4-.2-.7-.5-1-.9h-.3c-.2 0-.3-.1-.5-.1l-.3-.1v-1.4c0-1.1.3-2.1.9-2.8z"/><circle cx="314.1" cy="15.6" r=".8"/><path d="M321.6 10.8h2v.6h-2v-.6zM319.2 15v.7h14.1l-14.1-.7z"/><circle cx="338" cy="15.6" r=".8"/><path d="M340 8.9h-4.5l-1.9.6v.2c1.9.1 4.3.3 6.3.5V8.9h.1zm-10.4.6c-.2.2-.4.5-.4.8 0 .1 0 .2.1.3s.2.1.3.1h.9c.2 0 .3-.1.4-.2.1-.1.1-.3 0-.4-.2-.3-.5-.6-.9-.7-.2-.1-.3-.1-.4.1z"/><path d="M330.3 11.2c-.1 0-.2 0-.2-.1l-.5-.7c-.1-.1-.1-.3.1-.4.1-.1.3-.1.4.1l.5.7c.1.1.1.3-.1.4-.1-.1-.1 0-.2 0z"/></g><g fill="#6E6F71"><path fill-rule="evenodd" clip-rule="evenodd" d="M366.2 5.9h8.6c2.1.2 4.2 1.4 6.1 2.6-.1 0-.1.1-.1.1-.3.3-.5.7-.5 1.1v.1l-19.5-.6c2-1.6 3.2-3.3 5.4-3.3z"/><path d="M358.7 17.8c-1.9 0-3-1.3-3-1.3l-.1-.1v-2.5l.1-.1c.1-.2.4-.7.4-1.1v-2.5c0-.7 2.4-3.3 3.2-4l-.1-.9.4-.1c1.7-.4 5-.6 7.3-.6h8c3 .3 5.8 2 8.2 3.6.4.3.9.5 1.3.8.2 0 .4 0 .7.1 4.6.4 9 1.1 9.4 2.9v5.6l-.3.1c-.6.1-1.2.2-2.5.2h-1.3V17h1.3c1.1 0 1.6-.1 2-.1V12c-.2-.9-3.1-1.6-8.6-2.1-.3 0-.6-.1-.8-.1l-.2-.1c-.5-.3-.9-.6-1.4-.9-2.5-1.6-5.1-3.2-7.8-3.5H367c-2.1 0-5 .2-6.7.5l.1.6-.4.2c-.4.3-2.9 3.1-3.1 3.6v2.5c0 .6-.3 1.1-.4 1.4v2c.3.3 1.1.9 2.4.9h.6v.9h-.6c-.1-.1-.2-.1-.2-.1zm25.3-.1h-18.1v-.9H384v.9z"/><path fill-rule="evenodd" clip-rule="evenodd" d="M381 8.9c-.2.2-.4.5-.4.8 0 .1 0 .2.1.3.1.1.2.1.3.1h.9c.2 0 .3-.1.4-.2.1-.1.1-.3 0-.4-.2-.3-.5-.6-.9-.7-.1-.1-.3 0-.4.1z"/><path d="M381.8 10.6c-.1 0-.2 0-.2-.1l-.6-.8c-.1-.1-.1-.3.1-.4.1-.1.3-.1.4.1l.5.7c.1.1.1.3-.1.4 0 .1-.1.1-.1.1z"/><path fill-rule="evenodd" clip-rule="evenodd" d="M356.5 12h.5c.7 0 1.6-.5 1.6-1.1v-.6h-2.2c.1.6.1 1.2.1 1.7zM391.1 11.5l1 1.8c.3-.2.8-.3 1.2-.3h.8c0-.7.1-.8-.6-1.3l-2.4-.2z"/><path d="M373.2 10.8h2v.6h-2zM364.4 10.6h2v.6h-2z"/><path fill-rule="evenodd" clip-rule="evenodd" d="M368.2 15v.7h13.3zM393.8 14h-1.5c-.3.3-.3.8-.3 1.1h1.8V14zM392.7 16.5c-.1-.3-.1-.6-.1-.8h1.3v.8h-1.2zM360.8 6.8l-4 3.5.1-.8c.8-1.1 2.5-3 2.9-3.2l1 .5zM360.3 19.6c-.5-.5-1-1.1-1.1-1.8H358.6v-1.6c0-1.1.5-2.2 1.2-2.9.7-.7 1.8-1.2 2.9-1.2 1.1 0 2.2.5 2.9 1.2.7.7 1.2 1.8 1.2 2.9v1.6H366.2c-.2.7-.6 1.3-1.1 1.8-.6.5-1.4.9-2.3.9-1-.1-1.8-.4-2.5-.9zm26.8-5.2c-1.3 0-2.4 1.1-2.4 2.4s1.1 2.4 2.4 2.4c1.3 0 2.4-1.1 2.4-2.4s-1-2.4-2.4-2.4zm-24.4 0c-1.3 0-2.4 1.1-2.4 2.4s1.1 2.4 2.4 2.4c1.3 0 2.4-1.1 2.4-2.4s-1.1-2.4-2.4-2.4zm24.4-2.4c1.1 0 2.2.5 2.9 1.2.7.7 1.2 1.8 1.2 2.9v1.6H390.6c-.2.7-.6 1.3-1.1 1.8-.6.5-1.4.9-2.3.9-.9 0-1.7-.3-2.3-.9-.5-.5-1-1.1-1.1-1.8h-.8v-1.6c0-1.1.5-2.2 1.2-2.9.8-.8 1.8-1.2 2.9-1.2zm0 3.9c.5 0 .9.4.9.9s-.4.9-.9.9-.9-.4-.9-.9.4-.9.9-.9zm-24.4 0c-.5 0-.9.4-.9.9s.4.9.9.9.9-.4.9-.9-.4-.9-.9-.9z"/></g></svg>