<svg xmlns="http://www.w3.org/2000/svg" width="32" height="192">
  <svg viewBox="0 0 405.27 405.27" width="32" height="32">
    <path d="M393.4 124.42L179.6 338.21a40.57 40.57 0 0 1-57.36 0L11.88 227.84a40.56 40.56 0 0 1 57.35-57.37l81.7 81.7 185.1-185.1a40.57 40.57 0 0 1 57.37 57.36z" fill="#FAD130"/>
  </svg>
  <svg viewBox="0 0 405.27 405.27" width="32" height="32" y="32">
    <path d="M393.4 124.42L179.6 338.21a40.57 40.57 0 0 1-57.36 0L11.88 227.84a40.56 40.56 0 0 1 57.35-57.37l81.7 81.7 185.1-185.1a40.57 40.57 0 0 1 57.37 57.36z" fill="#00a1ff"/>
  </svg>
  <svg viewBox="0 0 405.27 405.27" width="32" height="32" y="64">
    <path d="M393.4 124.42L179.6 338.21a40.57 40.57 0 0 1-57.36 0L11.88 227.84a40.56 40.56 0 0 1 57.35-57.37l81.7 81.7 185.1-185.1a40.57 40.57 0 0 1 57.37 57.36z" fill="#fff"/>
  </svg>
  <svg viewBox="0 0 405.27 405.27" width="32" height="32" y="96">
    <path d="M393.4 124.42L179.6 338.21a40.57 40.57 0 0 1-57.36 0L11.88 227.84a40.56 40.56 0 0 1 57.35-57.37l81.7 81.7 185.1-185.1a40.57 40.57 0 0 1 57.37 57.36z" fill="#00A200"/>
  </svg>
  <svg viewBox="0 0 405.27 405.27" width="32" height="32" y="128">
    <path d="M393.4 124.42L179.6 338.21a40.57 40.57 0 0 1-57.36 0L11.88 227.84a40.56 40.56 0 0 1 57.35-57.37l81.7 81.7 185.1-185.1a40.57 40.57 0 0 1 57.37 57.36z" fill="#FF4B00"/>
  </svg>
  <svg viewBox="0 0 405.27 405.27" width="32" height="32" y="160">
    <path d="M393.4 124.42L179.6 338.21a40.57 40.57 0 0 1-57.36 0L11.88 227.84a40.56 40.56 0 0 1 57.35-57.37l81.7 81.7 185.1-185.1a40.57 40.57 0 0 1 57.37 57.36z" fill="#9c9c9c"/>
  </svg>
</svg>
