<svg xmlns="http://www.w3.org/2000/svg" viewBox="0 0 32 96"><path fill="#155F92" d="M27.9 1.5c-.1 0-1 1-2.2 2.1l-2.1 2.1-.5-.4c-1-.7-2.2-1.4-3.4-1.8-.5-.2-1.3-.4-1.9-.5-.4-.1-.6-.1-1-.2h-.3c-.1 0-.3 0-.5-.1-.5-.1-10.7 0-10.9 0-.4.1-1 .3-1.4.5-.6.4-1.3 1-1.7 1.5-.2.3-.6 1-.7 1.2V6c0 .1-.1.5-.2.8-.1.4-.1 1.6-.1 9.7v9.6c.1.8.5 1.8 1 2.5.9 1.1 2.2 1.9 3.6 2H16.8c.5-.1 1.2-.2 1.8-.4 3.5-1 6.5-3.3 8.3-6.4.9-1.5 1.6-3.3 1.8-5v-.3c.1-.7.1-2.4 0-3.4-.1-1.1-.8-3.3-1-3.5-.2-.1-.3-.1-.5-.1-.2.1-3 2.9-3.1 3 0 .2 0 .2.1.6.3 1.4.2 3-.3 4.5-.1.5-.6 1.6-.8 1.9 0 .1-.2.3-.3.4-.7 1.1-1.9 2.3-3.1 3-1 .6-2.3 1.1-3.3 1.3-.8.1-1.1.2-5.9.1H5.7l-.1-.1c-.3-.2-.3.6-.3-9.5v-9l.1-.2.3-.3C6 7 6.1 7 10.9 7H16c.1 0 .2 0 .3.1 1.2.1 2.7.7 3.8 1.4.2.1.4.2.4.3l-6.7 6.7-1.6-1.6c-1.3-1.3-1.6-1.6-1.7-1.6h-.3c-.1 0-2.5 2.4-2.6 2.6-.1.2-.1.4 0 .5 0 .1 1.4 1.4 3 3 3.1 3.1 3.1 3.1 3.4 3 .1-.1 16.9-16.8 17-17 0 0 0-.2-.1-.4s-2.5-2.5-2.6-2.6c-.1 0-.3 0-.4.1z"/><path fill="#FAD133" d="M10.8 44.5c-.2-.2-.6-.2-.9 0l-2.2 2.2c-.2.2-.2.6 0 .9l5.7 5.7c.2.2.6.2.9 0l16.5-16.5c.2-.2.2-.6 0-.9l-2.2-2.2c-.2-.2-.6-.2-.9 0l-4.1 4.1c-2.4-1.9-5.4-3.1-8.7-3.1H6.1C3.3 34.7 1 37 1 39.8v17.7c0 2.8 2.3 5.1 5.1 5.1h8.7c7.8 0 14.3-6.4 14.2-14.1 0-1.7-.4-3.4-1-4.9-.1-.3-.5-.4-.8-.2l-2.8 2.8c-.1.1-.2.3-.1.4.1.7.2 1.4.2 2.1 0 5.3-4.4 9.5-9.7 9.5H6.1c-.4 0-.7-.3-.7-.7V39.7c0-.4.3-.7.7-.7H15c2.1 0 4 .7 5.6 1.8l-6.7 6.7-3.1-3z"/><path fill="#FFF" d="M10.8 76.5c-.2-.2-.6-.2-.9 0l-2.2 2.2c-.2.2-.2.6 0 .9l5.7 5.7c.2.2.6.2.9 0l16.5-16.5c.2-.2.2-.6 0-.9l-2.2-2.2c-.2-.2-.6-.2-.9 0l-4.1 4.1c-2.4-1.9-5.4-3.1-8.7-3.1H6.1C3.3 66.7 1 69 1 71.8v17.7c0 2.8 2.3 5.1 5.1 5.1h8.7c7.8 0 14.3-6.4 14.2-14.1 0-1.7-.4-3.4-1-4.9-.1-.3-.5-.4-.8-.2l-2.8 2.8c-.1.1-.2.3-.1.4.1.7.2 1.4.2 2.1 0 5.3-4.4 9.5-9.7 9.5H6.1c-.4 0-.7-.3-.7-.7V71.7c0-.4.3-.7.7-.7H15c2.1 0 4 .7 5.6 1.8l-6.7 6.7-3.1-3z"/></svg>